<svg width="958" height="747" viewBox="0 0 958 747" fill="none" xmlns="http://www.w3.org/2000/svg" role="img" aria-labelledby="title desc">
  <title id="title">My Classifieds logo</title>
  <desc id="desc">My Classifieds logo with newspaper location icon, wordmark and Online Classifieds Platform tagline.</desc>
  <rect width="958" height="747" fill="transparent"/>

  <g transform="translate(265 45) scale(4.15)">
    <path d="M24 19L64 15L73 52L32 56L24 19Z" fill="#F8FAFC" stroke="#0F3D5E" stroke-width="3" stroke-linejoin="round"/>
    <path d="M20 24L73 24C76.3 24 79 26.7 79 30V57C79 60.3 76.3 63 73 63H26C22.7 63 20 60.3 20 57V24Z" fill="#FFFFFF" stroke="#0F3D5E" stroke-width="4" stroke-linejoin="round"/>
    <path d="M79 30C84 34.8 84 51 79 60" stroke="#0F3D5E" stroke-width="4" stroke-linecap="round"/>
    <rect x="28" y="32" width="14" height="13" rx="2" fill="#0F766E"/>
    <rect x="48" y="33" width="20" height="4" rx="2" fill="#0F3D5E"/>
    <rect x="48" y="42" width="20" height="4" rx="2" fill="#0F3D5E"/>
    <rect x="28" y="50" width="14" height="4" rx="2" fill="#0F3D5E"/>
    <rect x="48" y="51" width="16" height="4" rx="2" fill="#0F3D5E"/>
    <path d="M27 76L34 62H45L41 76H27Z" fill="#0F766E" opacity="0.98"/>
    <path d="M44 76L47 62H58L61 76H44Z" fill="#0F766E" opacity="0.94"/>
    <path d="M64 76L60 62H71L78 76H64Z" fill="#0F766E" opacity="0.98"/>
    <path d="M48 36C38.7 36 31.2 43.5 31.2 52.8C31.2 65.3 48 80.5 48 80.5S64.8 65.3 64.8 52.8C64.8 43.5 57.3 36 48 36Z" fill="#C2410C" stroke="#FFFFFF" stroke-width="4" stroke-linejoin="round"/>
    <circle cx="48" cy="52.8" r="6.8" fill="#FFFFFF"/>
  </g>

  <text x="55" y="565" font-family="Trebuchet MS, Arial, Helvetica, sans-serif" font-style="italic" font-weight="900" font-size="118" letter-spacing="-4" fill="#0F3D5E">My</text>
  <text x="300" y="565" font-family="Inter, Arial, Helvetica, sans-serif" font-weight="900" font-size="112" letter-spacing="-3" fill="#C2410C">Classifieds</text>
  <text x="176" y="676" font-family="Inter, Arial, Helvetica, sans-serif" font-weight="800" font-size="42" letter-spacing="4.8" fill="#0F766E">Online Classifieds Platform</text>
</svg>
